<svg width="69" height="100" viewBox="0 0 69 100" fill="none" xmlns="http://www.w3.org/2000/svg">
<path opacity="0.08" d="M67.0716 73.852C67.5694 74.1453 67.5659 74.8664 67.0654 75.1548L25.0502 99.367C24.8175 99.5011 24.5309 99.5013 24.298 99.3674L1.13552 86.051C0.631615 85.7613 0.631245 85.0345 1.13485 84.7442L43.4321 60.3697C43.6673 60.2342 43.9573 60.2356 44.1912 60.3734L67.0716 73.852Z" fill="black" fill-opacity="0.6"/>
<path d="M31.6935 0.501136C30.9698 0.130212 30.16 -0.0400856 29.3482 0.00794999C28.5364 0.0559856 27.7523 0.320603 27.0773 0.774285C23.2988 2.95946 20.2305 9.26004 20.2305 14.8322V27.9524C20.2305 28.1102 20.2925 28.2617 20.4032 28.3741C20.514 28.4865 20.6645 28.5509 20.8223 28.5533C20.9809 28.5509 21.1324 28.4869 21.2446 28.3747C21.3568 28.2625 21.4209 28.111 21.4232 27.9524V14.8322C21.4232 9.64244 24.2275 3.79711 27.6783 1.81224C28.1677 1.45864 28.7444 1.24546 29.3461 1.19571C29.9479 1.14597 30.5518 1.26156 31.0926 1.52999C32.513 2.35854 33.3324 4.44356 33.3324 7.26607V20.3316C33.3348 20.4894 33.3992 20.6399 33.5116 20.7506C33.624 20.8614 33.7755 20.9234 33.9333 20.9234C34.0903 20.9234 34.2408 20.861 34.3518 20.7501C34.4628 20.6391 34.5251 20.4885 34.5251 20.3316V7.26607C34.5251 4.00652 33.4963 1.53909 31.6935 0.501136Z" fill="#E0E0E0"/>
<path d="M61.0216 75.7703L53.0184 10.0239L50.3779 8.60352L43.3672 65.5819L61.0216 75.7703Z" fill="#68B3C8"/>
<path opacity="0.35" d="M61.0216 75.7703L53.0184 10.0239L50.3779 8.60352L43.3672 65.5819L61.0216 75.7703Z" fill="black" fill-opacity="0.6"/>
<path d="M13.4027 29.9545L6.38281 86.9237L43.3669 65.5819L50.3776 8.60352L13.4027 29.9545Z" fill="#68B3C8"/>
<path opacity="0.5" d="M13.4027 29.9545L6.38281 86.9237L43.3669 65.5819L50.3776 8.60352L13.4027 29.9545Z" fill="black" fill-opacity="0.6"/>
<path d="M13.4027 29.9551L16.0431 31.3754L24.0372 97.1218L6.38281 86.9244L13.4027 29.9551Z" fill="#68B3C8"/>
<path d="M23.1522 89.8104L22.8791 87.607L7.40079 78.666L7.16406 80.5871L23.1522 89.8104Z" fill="#E0E0E0"/>
<path d="M9.19767 64.0703L8.96094 65.9823L21.1069 72.9931L20.8337 70.7897L9.19767 64.0703Z" fill="#E0E0E0"/>
<path d="M8.30313 71.373L8.06641 73.2851L22.1243 81.4066L21.8603 79.1941L8.30313 71.373Z" fill="#E0E0E0"/>
<path d="M10.0961 56.7695L9.85938 58.6907L20.0842 64.5906L19.811 62.3781L10.0961 56.7695Z" fill="#E0E0E0"/>
<path d="M6.50117 85.9668L6.38281 86.9228L24.0372 97.1203L23.9097 96.0095L6.50117 85.9668Z" fill="#E0E0E0"/>
<path d="M12.7914 34.873L12.5547 36.7942L17.007 39.3618L16.7429 37.1493L12.7914 34.873Z" fill="#E0E0E0"/>
<path d="M11.893 42.1738L11.6562 44.0859L18.0388 47.7733L17.7656 45.5608L11.893 42.1738Z" fill="#E0E0E0"/>
<path d="M10.9984 49.4668L10.7617 51.3879L19.0563 56.1771L18.7922 53.9737L10.9984 49.4668Z" fill="#E0E0E0"/>
<path opacity="0.3" d="M13.4027 29.9551L16.0431 31.3754L24.0372 97.1218L6.38281 86.9244L13.4027 29.9551Z" fill="black" fill-opacity="0.6"/>
<path opacity="0.15" d="M24.0372 97.1215L16.4528 86.4688L15.5059 49.2754L14.559 85.8224L6.38281 86.9241L24.0372 97.1215Z" fill="black" fill-opacity="0.6"/>
<path d="M53.0179 10.0254L16.043 31.3763L24.0371 97.1227L61.0302 75.7718L53.0179 10.0254ZM31.3756 35.5191C30.6472 35.9288 30.0554 35.5828 30.0554 34.7451C30.0793 34.287 30.2115 33.8411 30.4409 33.4439C30.6704 33.0466 30.9907 32.7094 31.3756 32.4598C32.104 32.0319 32.6958 32.3779 32.6958 33.2337C32.6677 33.6871 32.5336 34.1276 32.3043 34.5198C32.075 34.9119 31.7569 35.2448 31.3756 35.4918V35.5191ZM44.4775 27.8892C43.7491 28.308 43.1573 27.962 43.1573 27.1153C43.1827 26.6575 43.3154 26.2121 43.5448 25.8151C43.7741 25.4181 44.0936 25.0806 44.4775 24.8299C45.2059 24.4111 45.7977 24.7571 45.7977 25.6038C45.7703 26.0574 45.6365 26.4982 45.4071 26.8904C45.1778 27.2827 44.8593 27.6155 44.4775 27.8619V27.8892Z" fill="#68B3C8"/>
<path opacity="0.15" d="M53.0179 10.0254L16.043 31.3763L24.0371 97.1227L61.0302 75.7718L53.0179 10.0254ZM31.3756 35.5191C30.6472 35.9288 30.0554 35.5828 30.0554 34.7451C30.0793 34.287 30.2115 33.8411 30.4409 33.4439C30.6704 33.0466 30.9907 32.7094 31.3756 32.4598C32.104 32.0319 32.6958 32.3779 32.6958 33.2337C32.6677 33.6871 32.5336 34.1276 32.3043 34.5198C32.075 34.9119 31.7569 35.2448 31.3756 35.4918V35.5191ZM44.4775 27.8892C43.7491 28.308 43.1573 27.962 43.1573 27.1153C43.1827 26.6575 43.3154 26.2121 43.5448 25.8151C43.7741 25.4181 44.0936 25.0806 44.4775 24.8299C45.2059 24.4111 45.7977 24.7571 45.7977 25.6038C45.7703 26.0574 45.6365 26.4982 45.4071 26.8904C45.1778 27.2827 44.8593 27.6155 44.4775 27.8619V27.8892Z" fill="black" fill-opacity="0.6"/>
<path d="M55.8054 32.9055L55.5687 30.9844L18.5938 52.3262L18.8214 54.2473L55.8054 32.9055Z" fill="#FAFAFA"/>
<path d="M54.9148 25.593L54.6781 23.6719L17.7031 45.0228L17.9398 46.944L54.9148 25.593Z" fill="#FAFAFA"/>
<path d="M54.0203 18.2942L53.7926 16.373L16.8086 37.724L17.0453 39.6451L54.0203 18.2942Z" fill="#FAFAFA"/>
<path d="M53.0179 10.0254L16.043 31.3763L16.1522 32.3415L53.1363 10.9905L53.0179 10.0254Z" fill="#FAFAFA"/>
<path d="M56.6882 40.2082L56.4606 38.2871L19.4766 59.6381L19.7133 61.5592L56.6882 40.2082Z" fill="#FAFAFA"/>
<path d="M57.5789 47.509L57.3421 45.5879L20.3672 66.9388L20.6039 68.86L57.5789 47.509Z" fill="#FAFAFA"/>
<path d="M60.2468 69.4251L60.0101 67.5039L23.0352 88.8549L23.2719 90.776L60.2468 69.4251Z" fill="#FAFAFA"/>
<path d="M61.023 75.7698L60.9046 74.8047L23.9297 96.1556L24.0389 97.1207L61.023 75.7698Z" fill="#FAFAFA"/>
<path d="M59.3562 62.1223L59.1286 60.2012L22.1445 81.5521L22.3813 83.4641L59.3562 62.1223Z" fill="#FAFAFA"/>
<path d="M58.4734 54.8215L58.2366 52.9004L21.2617 74.2423L21.4893 76.1634L58.4734 54.8215Z" fill="#FAFAFA"/>
<path d="M42.2404 6.50141C41.5194 6.12651 40.7103 5.95393 39.8991 6.00203C39.088 6.05012 38.3049 6.31708 37.6333 6.77454C33.8548 8.95972 30.7773 15.2603 30.7773 20.8325V33.9617C30.7797 34.1195 30.8441 34.2701 30.9565 34.3808C31.069 34.4915 31.2204 34.5536 31.3783 34.5536C31.5352 34.5536 31.6858 34.4912 31.7967 34.3802C31.9077 34.2692 31.9701 34.1187 31.9701 33.9617V20.8325C31.9701 15.6427 34.7744 9.79737 38.2251 7.8125C38.7154 7.46035 39.2926 7.24879 39.8943 7.20065C40.496 7.15252 41.0994 7.26963 41.6395 7.53936C43.0689 8.3588 43.8884 10.4438 43.8884 13.2663V26.3319C43.8884 26.4897 43.9504 26.6411 44.0611 26.7536C44.1719 26.866 44.3224 26.9304 44.4802 26.9328C44.6388 26.9304 44.7903 26.8664 44.9025 26.7542C45.0147 26.642 45.0788 26.4905 45.0811 26.3319V13.2663C45.0811 10.0068 44.0432 7.53937 42.2404 6.50141Z" fill="#FAFAFA"/>
<path opacity="0.3" d="M47.2986 33.5606C45.9601 32.6501 43.0284 31.7396 39.1042 32.5682C41.9085 29.6091 42.4639 27.2054 41.9995 25.2843C40.8009 23.6536 39.0669 22.4965 37.1011 22.0156C34.8158 22.744 28.9067 28.389 30.5456 35.673C29.2982 33.6173 27.5422 31.9177 25.4468 30.7381C23.2018 29.5923 20.6409 29.221 18.1629 29.6819C17.3016 30.4215 16.6184 31.346 16.1644 32.3866C15.7103 33.4271 15.4971 34.5567 15.5407 35.6912C15.7865 36.3012 17.0794 37.3847 18.6455 38.2678C18.1155 38.5362 17.6045 38.8404 17.1159 39.1783C17.0649 40.7087 17.3283 42.2334 17.8898 43.6579C18.4032 44.6515 19.1615 45.4976 20.0932 46.1163C19.3204 47.797 18.9703 49.6411 19.0734 51.4881C21.256 53.1124 23.8218 54.1443 26.5212 54.4836C27.815 53.3179 28.9451 51.9826 29.8809 50.5139C30.0266 50.2863 30.1632 50.0587 30.2997 49.8219V49.7764L30.6548 49.1027L30.7095 49.0025C30.8187 48.784 30.9189 48.5564 31.0099 48.3287L31.0737 48.1922C31.1829 47.9099 31.2922 47.6368 31.3832 47.3454C31.4759 47.0734 31.5549 46.7968 31.6199 46.5169C31.9651 44.8392 32.0236 43.1153 31.7929 41.4181C32.3851 42.4983 33.1 43.5065 33.9235 44.4227C34.9263 45.4837 36.1063 46.3618 37.4107 47.0176H37.4653C38.2498 47.4146 39.0587 47.7613 39.8872 48.0556C40.5551 48.2894 41.2361 48.484 41.9267 48.6383C42.9228 47.9761 43.7771 47.1222 44.4399 46.1265C45.1027 45.1307 45.5607 44.013 45.7871 42.8385C45.5486 41.9015 45.0718 41.0422 44.4032 40.3438C45.2385 40.1107 46.0425 39.7775 46.7978 39.3513C46.7978 39.3513 48.6916 36.4924 47.2986 33.5606ZM25.7564 47.3909L25.6289 47.5093L24.9825 48.0738L24.8459 48.1831L24.6001 48.3743C24.6329 47.1875 24.8764 46.0159 25.3194 44.9144C26.8239 44.171 28.1312 43.0822 29.1343 41.7368C28.6748 43.5276 27.7981 45.1843 26.5758 46.5715L26.4939 46.6626L25.7564 47.3909ZM23.5166 39.7064C24.7749 39.5306 26.0014 39.1749 27.1586 38.6503C26.0454 39.2872 24.9991 40.0345 24.0356 40.8809C23.5391 40.9904 23.0326 41.0483 22.5242 41.0539C22.7859 40.5577 23.1204 40.1035 23.5166 39.7064ZM42.7461 36.5106C41.9941 36.8047 41.217 37.0302 40.4244 37.1844C40.133 37.2481 39.8508 37.2936 39.5685 37.33C37.2822 36.8085 34.9238 36.6792 32.5942 36.9476C35.2024 36.069 37.9685 35.7585 40.7066 36.0371C41.3984 36.138 42.0806 36.2964 42.7461 36.5106ZM34.7611 29.7639C35.1926 29.29 35.6615 28.8515 36.1633 28.4528C36.0631 28.8261 35.963 29.1903 35.8355 29.5454C35.667 30.049 35.4537 30.5365 35.1982 31.0021C34.4774 32.3817 33.5082 33.6164 32.3392 34.6441C32.7602 32.8526 33.589 31.1825 34.7611 29.7639ZM23.6441 34.2162C25.1824 34.3566 26.6605 34.8827 27.9416 35.7458C27.3407 35.7458 26.7579 35.8368 26.2025 35.9097C25.9112 35.9097 25.6016 35.8277 25.2921 35.7731C24.6214 35.6622 23.9607 35.4978 23.3163 35.2814C23.1069 35.2086 22.9157 35.1267 22.7154 35.0447L22.2055 34.7898C21.9324 34.635 21.6683 34.4802 21.4225 34.3072C22.1579 34.201 22.9024 34.1704 23.6441 34.2162ZM31.7838 38.2041H31.8931C33.7299 39.642 35.906 40.5827 38.2119 40.9356C38.4702 41.1068 38.7166 41.2954 38.9494 41.5001C39.3849 41.8937 39.7619 42.3475 40.0693 42.8476C39.5048 42.7383 38.8978 42.5927 38.2483 42.4106C35.7578 41.6082 33.5263 40.1561 31.7838 38.2041Z" fill="black" fill-opacity="0.6"/>
<path d="M18.7561 49.7576C18.5012 47.3631 19.4845 39.8151 29.4908 35.5449L30.8474 36.1003C30.8474 36.1003 19.9853 43.2203 26.2039 52.7531L18.7561 49.7576Z" fill="#E0E0E0"/>
<path d="M30.23 33.9336C30.23 33.9336 32.4242 40.2342 31.3317 44.7866C30.2391 49.3391 26.2056 52.7534 26.2056 52.7534C23.5057 52.4157 20.9396 51.3836 18.7578 49.7579C21.5983 48.6807 24.164 46.9858 26.2693 44.7957C29.538 41.2721 29.4925 35.5452 29.4925 35.5452L30.23 33.9336Z" fill="#F0F0F0"/>
<path d="M26.1867 44.8789L31.0942 45.6164C30.7196 46.7327 30.2057 47.7972 29.5646 48.7849L23 47.5648C24.1572 46.7887 25.2259 45.888 26.1867 44.8789Z" fill="#FAFAFA"/>
<path d="M16.7891 37.457C20.7789 34.8807 25.4873 33.6462 30.2279 33.9334L30.1004 35.3356C30.1004 35.3356 26.0123 35.8818 23.5904 37.6027C21.1685 39.3235 20.4947 44.7773 20.4947 44.7773L16.7891 37.457Z" fill="#E0E0E0"/>
<path d="M30.2277 33.9336C30.2277 33.9336 30.7648 35.6817 29.5539 38.6408C27.9605 42.5195 22.8436 44.3041 20.449 44.7775C19.1717 44.1984 18.1376 43.19 17.5264 41.9277C16.964 40.5063 16.6975 38.9851 16.7433 37.4572C17.766 38.2409 18.9495 38.7885 20.2088 39.0609C21.4681 39.3332 22.7721 39.3235 24.0272 39.0323C25.1362 38.7429 26.1686 38.2149 27.0524 37.4852C27.9361 36.7555 28.65 35.8418 29.1442 34.8077L30.2277 33.9336Z" fill="#F0F0F0"/>
<path d="M24.7738 43.2484C23.9654 43.6639 23.1251 44.014 22.2608 44.2954C21.3231 43.6709 20.5409 42.8399 19.9743 41.8661C19.4077 40.8923 19.0717 39.8016 18.9922 38.6777C20.0101 39.0767 21.0948 39.2775 22.188 39.2695C22.6613 40.8114 23.557 42.1897 24.7738 43.2484Z" fill="#FAFAFA"/>
<path d="M17.8449 27.9449C20.3218 27.4783 22.8835 27.8466 25.1288 28.9919C27.221 30.1796 28.9759 31.8812 30.2275 33.9359L29.49 35.5474C27.8864 33.7956 25.6971 32.6912 23.3351 32.4427C20.2303 32.1877 15.2227 33.945 15.2227 33.945L17.8449 27.9449Z" fill="#E0E0E0"/>
<path d="M30.2293 33.9344L29.4918 35.5459C29.4918 35.5459 25.3127 38.0225 22.5721 37.9587C19.8315 37.895 15.6797 35.0907 15.2245 33.9435C15.1803 32.8103 15.3932 31.6818 15.8473 30.6426C16.3015 29.6035 16.985 28.6807 17.8467 27.9434C17.8467 27.9434 19.0576 32.1589 23.0182 33.4973C25.3363 34.3017 27.831 34.4529 30.2293 33.9344Z" fill="#F0F0F0"/>
<path d="M24.9935 33.9872L21.8796 37.875C20.8285 37.6651 19.8154 37.2967 18.875 36.7824L21.9069 32.9766C22.2619 33.1731 22.6336 33.3376 23.0177 33.4682C23.6614 33.6938 24.3221 33.8673 24.9935 33.9872Z" fill="#FAFAFA"/>
<path d="M45.4979 41.1356C45.3249 39.8427 43.2763 36.8198 39.5706 35.6726C35.8649 34.5254 30.6023 35.4086 30.6023 35.4086L30.0469 36.0823C30.0469 36.0823 36.0561 37.4663 38.6419 39.7243C41.2277 41.9823 41.6283 46.9445 41.6283 46.9445L45.4979 41.1356Z" fill="#E0E0E0"/>
<path d="M30.6023 35.3828C32.4633 37.8393 35.03 39.669 37.9591 40.6272C42.5661 41.9656 45.4979 41.1371 45.4979 41.1371C45.2718 42.3129 44.813 43.4316 44.1485 44.4276C43.484 45.4235 42.6272 46.2767 41.6283 46.9369C41.6283 46.9369 36.5569 45.9263 33.6342 42.694C31.9292 40.8014 30.7077 38.524 30.0742 36.0566L30.6023 35.3828Z" fill="#F0F0F0"/>
<path d="M40.2341 41.1367C41.2022 41.3043 42.1833 41.3866 43.1658 41.3826C42.3497 43.2783 41.132 44.9744 39.5967 46.3538C38.4398 45.9545 37.3264 45.439 36.2734 44.8151C37.8894 43.9519 39.254 42.6846 40.2341 41.1367Z" fill="#FAFAFA"/>
<path d="M46.9918 31.7863C44.8613 30.3387 38.7337 28.8273 30.9126 34.5178L30.7305 35.7288C33.7888 34.4698 37.1064 33.9699 40.3999 34.272C45.2254 34.9366 46.5092 37.6499 46.5092 37.6499L46.9918 31.7863Z" fill="#E0E0E0"/>
<path d="M30.7305 35.7367C32.9386 37.7557 35.7524 38.9881 38.7337 39.2421C41.4235 39.466 44.1214 38.9163 46.5092 37.6578C46.5092 37.6578 48.3848 34.726 46.9918 31.7852C45.1124 33.6591 42.7151 34.9275 40.1085 35.4271C35.7382 36.2739 31.8322 35.5182 30.9126 34.5166L30.7305 35.7367Z" fill="#F0F0F0"/>
<path d="M43.1037 34.4533C44.0754 34.0052 44.992 33.4461 45.8351 32.7871C46.0073 34.7678 45.5689 36.7537 44.5787 38.4777C43.9464 38.6849 43.3017 38.8522 42.6484 38.9784C43.1857 37.534 43.3424 35.9758 43.1037 34.4533Z" fill="#FAFAFA"/>
<path d="M36.7851 20.2402C34.4997 20.9686 28.5451 26.6137 30.2295 33.8976L31.5771 35.3179C31.5771 35.3179 31.8866 30.8383 34.4542 27.9521C37.0218 25.0658 41.6835 23.4725 41.6835 23.4725L36.7851 20.2402Z" fill="#E0E0E0"/>
<path d="M30.7273 35.7368C33.0511 34.9778 35.2303 33.8328 37.1736 32.3497C41.38 28.7078 42.2177 25.7578 41.6805 23.5089C40.4792 21.8811 38.7463 20.7247 36.7821 20.2402C36.7821 20.2402 36.5909 26.1766 34.8883 29.2359C32.612 33.3149 30.2266 33.934 30.2266 33.934L30.7273 35.7368Z" fill="#F0F0F0"/>
<path d="M36.6746 21.8789C38.5509 22.5596 40.2901 23.5711 41.8097 24.8653C41.7419 26.2085 41.297 27.5055 40.5259 28.6074C38.957 27.9112 37.2375 27.6231 35.5273 27.7698C36.1314 25.8559 36.5163 23.8796 36.6746 21.8789Z" fill="#FAFAFA"/>
</svg>
