<?xml version="1.0" encoding="UTF-8"?>
<svg id="Layer_1" data-name="Layer 1" xmlns="http://www.w3.org/2000/svg" viewBox="0 0 1358.43 557.3">
  <defs>
    <style>
      .cls-1 {
        fill: #37429a;
        stroke-width: 0px;
      }
    </style>
  </defs>
  <path class="cls-1" d="M229.3,169.88l104.34,30.62,45-54.43c-1.3-.61-2.71-1.13-4.23-1.56-53.44-15.36-106.86-30.85-160.27-46.36-6.08-1.77-11.33-1.5-16.09,1.06l30.65,69.31.6,1.35Z"/>
  <path class="cls-1" d="M420.18,273.7c-9.57-34.85-19.02-69.74-28.32-104.64-1.73-6.52-5.31-10.72-10.79-13.28l-84.2,99.54c-2.91-11.51-5.8-23.03-8.63-34.57-.36-1.48-1.04-2.19-2.41-2.57-3.17-.88-6.3-1.9-9.35-2.83-.14-1.8-.19-3.47-.4-5.12-1.22-9.6-9.22-17.86-18.35-19.03-7.74-1-14.04,1.65-18.99,7.75-1.17,1.43-2.3,2.89-3.46,4.34-2.06-.89-4.01-1.79-6.01-2.58-4.05-1.59-8.15-1.95-12.33-.92-10.58,2.6-17.36,13.43-15.47,24.81.51,3.06,1.61,5.89,3.24,8.63-2.48,2.48-4.84,4.9-7.26,7.25-.89.86-1.12,1.73-.8,2.99,3.2,12.67,6.37,25.34,9.5,38.02.12.47.27.86.48,1.19l-51.04-16.09-3.5-1.1-92.39-11.85c-4.27,5.64-4.42,11.01-1.98,18.04,15.99,45.91,31.81,91.85,47.07,138,3.38,10.28,9.28,15.81,19.44,18.22,23.07,5.43,46.03,11.33,69.08,16.85,24.76,5.94,49.54,11.69,74.35,17.43,4.33,1.02,8.74,1.46,12.49-.65l-25.73-163.44c1.12.35,2.25.69,3.37,1.04,1.14.35,1.94.12,2.78-.72,1.3-1.31,2.6-2.62,3.91-3.93l.19,1.23,25.79,163.8c1.02-.57,1.98-1.33,2.89-2.32,8.74-9.56,127.72-180.17,126.83-183.49ZM206.66,212.11c3.76-7.61,13.04-11.27,21.05-8.24,2.34.89,4.63,1.94,6.91,2.98,1.21.55,2.11.37,2.92-.71,1.44-1.91,2.88-3.82,4.46-5.6,4.75-5.35,10.67-7.23,17.5-5.28,6.78,1.94,11.2,6.68,12.97,13.86,1.38,5.62.27,10.83-2.84,15.44-6.86,10.18-13.8,20.31-20.71,30.46-.16.23-.34.44-.55.72-3.56-1.86-7.09-3.7-10.61-5.55-7.56-3.97-15.12-7.94-22.68-11.91-9.54-5-13.23-16.44-8.42-26.17ZM255.21,294.66c-14.92-4.58-29.83-9.17-44.75-13.75-.65-.2-1.1-.42-1.3-1.23-2.8-11.33-5.64-22.66-8.47-33.98-.04-.16-.06-.33-.14-.72.92.27,1.69.49,2.45.72,14.49,4.46,28.99,8.91,43.48,13.36.69.21,1.15.46,1.36,1.32,2.78,11.25,5.6,22.49,8.41,33.74.06.24.1.48.17.85-.47-.12-.84-.19-1.21-.31ZM260.57,293.42c-.22.22-.46.42-.84.76-.63-2.53-1.21-4.86-1.8-7.18-2.27-9.09-4.54-18.18-6.83-27.26-.2-.77-.14-1.28.44-1.86,11.08-11.11,22.14-22.24,33.2-33.37.22-.22.46-.42.78-.71.13.42.25.72.32,1.03,2.8,11.17,5.58,22.34,8.4,33.5,0,.03.01.06.02.09l-6.55,7.75c-9.05,9.08-18.09,18.17-27.13,27.26Z"/>
  <path class="cls-1" d="M155.42,256.63l64.05-84.78.73-.96-30.65-69.31c-2.35,1.27-4.58,3.09-6.73,5.51-17.68,19.99-35.87,39.53-53.74,59.35-22.76,25.24-45.19,50.74-68.21,75.71-.66.71-1.25,1.41-1.78,2.11l92.39,11.85,3.95.51Z"/>
  <path class="cls-1" d="M598.58,281.03v119.29c0,7.72-.57,15.31-1.7,22.76-1.13,7.44-5.18,14.08-12.15,19.92-5.27,4.52-11.21,7.72-17.8,9.61-6.6,1.88-13.38,3.01-20.35,3.39-1.51.19-3.02.28-4.53.28h-4.52c-2.08,0-4.19-.05-6.36-.14-2.17-.1-4.38-.24-6.64-.43-11.12-1.13-21.48-4.38-31.09-9.75-9.61-5.37-14.89-14.65-15.83-27.84l38.16.28c.75,4.52,3.11,7.86,7.06,10.03,3.96,2.17,8.2,3.34,12.72,3.53h1.7c.94,0,1.93-.05,2.96-.14,1.04-.1,2.12-.24,3.25-.43,1.32-.19,2.59-.38,3.82-.57,1.22-.19,2.31-.47,3.25-.85,6.03-2.45,9.98-6.41,11.87-11.87,1.88-5.47,2.92-11.21,3.11-17.24v-17.24c-4.9,6.97-10.65,12.25-17.24,15.83-6.6,3.57-14.23,5.37-22.89,5.37-13.76,0-25.25-3.91-34.48-11.73-9.23-7.82-15.36-18.33-18.37-31.52-.57-2.45-1.04-5.09-1.41-7.92-.38-2.83-.66-5.65-.85-8.48v-7.21c0-1.04.09-2.03.28-2.97.75-12.25,4.14-23.79,10.17-34.63,6.03-10.84,15.35-17.86,27.98-21.06,1.13-.37,2.26-.61,3.39-.71,1.13-.09,2.35-.23,3.68-.42,1.13-.19,2.26-.28,3.39-.28h3.39c8.48,0,16.58,1.93,24.3,5.79,7.72,3.86,13.94,9.66,18.66,17.38v-20.07h33.07ZM558.16,316.67c-5.84-5.85-12.34-9.05-19.5-9.62-.38-.19-.8-.28-1.27-.28h-2.4c-6.97.19-13.38,2.88-19.22,8.06-5.84,5.19-8.95,12.87-9.33,23.06v2.26c-.19.38-.28.76-.28,1.13v1.13c0,9.05,2.59,16.83,7.77,23.34,5.18,6.51,12.58,9.76,22.19,9.76,10.36,0,18.09-3.25,23.17-9.76,5.09-6.5,7.63-14.57,7.63-24.19,0-10.75-2.92-19.05-8.76-24.9Z"/>
  <path class="cls-1" d="M640.55,212.56h.71c5.09.38,9.7,2.26,13.85,5.65,4.14,3.39,6.22,8.39,6.22,14.98s-2.08,11.56-6.22,14.95c-4.14,3.38-8.76,5.26-13.85,5.64h-1.41c-5.28,0-10.08-1.69-14.42-5.07s-6.5-8.55-6.5-15.51,2.16-12.15,6.5-15.54c4.33-3.39,9.14-5.09,14.42-5.09h.71ZM623.45,281.03h34.76v121.03h-34.76v-121.03Z"/>
  <path class="cls-1" d="M691.56,308.51h-16.11v-27.48h16.11v-27.14c0-9.43,1.41-17.81,4.24-25.16,2.82-7.35,9.04-12.82,18.65-16.4,1.88-.57,3.82-1.13,5.79-1.69,1.98-.57,4-.94,6.08-1.13,1.51-.37,3.01-.61,4.52-.71s3.02-.14,4.53-.14c1.69,0,3.39.1,5.08.28,1.7.19,3.39.38,5.09.57,1.69.37,3.39.71,5.08.99,1.7.28,3.39.61,5.09.99v28.01c-1.13-.57-2.45-1.13-3.96-1.69s-3.01-.94-4.52-1.13c-.94-.19-1.89-.33-2.83-.42-.94-.1-1.79-.14-2.54-.14h-1.7c-1.88.19-3.67.66-5.37,1.41-1.7.75-3.11,1.79-4.24,3.11-1.89,2.26-3.25,4.94-4.1,8.05-.85,3.11-1.37,6.36-1.55,9.75v5.93c.19,1.32.33,2.54.42,3.67.1,1.13.24,2.26.43,3.39,0,1.88.09,3.63.28,5.23.19,1.6.28,3.06.28,4.38h22.33v27.48h-22.33v93.56h-34.76v-93.56Z"/>
  <path class="cls-1" d="M783.7,308.51h-17.52v-27.48h17.52v-39.85h34.76v39.85h16.68v27.48h-16.68v93.56h-34.76v-93.56Z"/>
  <path class="cls-1" d="M881.77,366.65c.75,4.71,3.15,8.48,7.2,11.3,4.05,2.82,8.43,4.42,13.15,4.8h1.69c.75,0,1.51-.04,2.26-.14.75-.09,1.51-.23,2.26-.42,1.51-.19,2.92-.52,4.24-.99,1.32-.47,2.45-.99,3.39-1.55,1.88-.94,3.3-2.26,4.24-3.96.94-1.69,1.41-3.48,1.41-5.37,0-.37-.05-.8-.14-1.27s-.14-.99-.14-1.55c-.19-.37-.33-.8-.43-1.27-.1-.47-.24-.89-.42-1.27-.94-2.07-2.97-3.9-6.08-5.51-3.11-1.6-6.45-2.97-10.03-4.1-2.64-1.13-5.23-2.07-7.77-2.82-2.55-.75-4.57-1.41-6.08-1.98-.38-.19-.71-.33-.99-.42s-.61-.24-.99-.43c-6.78-2.63-13.19-6.26-19.22-10.87-6.03-4.61-9.7-10.87-11.02-18.79,0-.37-.05-.75-.14-1.13-.1-.37-.14-.75-.14-1.13,0-.19-.05-.47-.14-.85-.1-.37-.14-.75-.14-1.13,0-7.34,2.35-14.12,7.07-20.34,4.71-6.22,10.46-10.73,17.24-13.56,2.64-1.13,5.42-2.07,8.34-2.82,2.92-.75,5.89-1.22,8.9-1.41,1.32-.19,2.64-.33,3.96-.42s2.64-.14,3.96-.14c1.13,0,2.21.05,3.25.14s2.03.14,2.97.14c8.29.94,16.16,3.4,23.6,7.36,7.44,3.96,13.14,9.62,17.1,16.98l-25.72,12.72c-1.32-3.77-3.72-6.83-7.21-9.18s-7.21-3.72-11.16-4.1c-.38-.19-.8-.28-1.27-.28h-1.55c-.76,0-1.56.05-2.41.14s-1.65.24-2.4.42c-1.32.37-2.59.8-3.81,1.27-1.23.47-2.4,1.08-3.53,1.83-.76.57-1.46,1.37-2.12,2.4-.66,1.04-1.18,2.02-1.55,2.96-.19.57-.33,1.08-.43,1.55s-.14.9-.14,1.27.04.76.14,1.13.14.75.14,1.13c.37.94.8,1.79,1.27,2.54.47.75.89,1.41,1.27,1.97,1.7,1.88,4.33,3.58,7.92,5.08,3.58,1.51,7.35,2.92,11.3,4.24,2.83.75,5.56,1.55,8.2,2.4,2.64.85,4.9,1.65,6.78,2.4.57.19,1.04.38,1.41.57.37.19.75.38,1.13.57,6.97,2.82,12.43,7.1,16.39,12.85,3.96,5.74,6.41,11.72,7.35,17.93,0,.75.04,1.55.14,2.4.1.85.14,1.65.14,2.4,0,5.84-1.56,11.48-4.66,16.94-3.11,5.46-7.96,9.88-14.55,13.27-3.02,1.13-6.45,2.12-10.32,2.97-3.86.85-7.87,1.46-12.01,1.84-1.51.19-3.02.33-4.52.43-1.51.09-3.02.14-4.52.14h-1.41c-9.99-.19-19.46-2.17-28.4-5.93-8.95-3.77-15.4-10.17-19.36-19.21l27.13-14.12Z"/>
  <path class="cls-1" d="M1323.72,333.59c.23-23.34-15.93-46.07-37.18-52.51-18.96-5.71-47.43,2.21-69.15,3.45-18.98-4.56-38.17-8.83-57.68-8.41,0,0-.33-.08-.32-.08-3.82-.01-7.44,1.11-11.28.86-.99.15-1.93,1.14-2.88.32-14.91,2.2-30.85,4.91-42.11,16.4-8.54,9.36-22.17,14.47-31.75,21.36-7.14-28.82-44.14-39.86-69.03-30.25,17.76,9,9.53,4.51,24.43,16.67,3.64,3.73,18.69,13.52,20.14,20.87-16.47,4.72-40.65,10.54-57.44,10.02-1.48,0-2.64-.06-2.08-2.29,3.7-14.7,14.91-24.66,26.52-26.06.82-.1,1.89.3,2.47-1.08-9.4-6.73-19.56-9.87-30.94-8.33-15.8,12.32-21.68,33.63-20.38,53.68h0c1.4,29.2,24.01,54.18,52.18,53.68-.25,0-.49,0-.74-.01,1.38.03,3.47-.27,4.84-.22-1.02-.01-3.06.13-4.1.23,23.15.12,41.21-7.52,54.15-28.77l-9.86-5.12c.36.63.67,1.27.93,1.91-.26-.64-.57-1.28-.93-1.91-2.73-1.42-8.7-4.52-11.38-5.91-3.86.33-6.85,2.86-9.54,5.51-13.55,13.87-45.01,12.39-53.18-11.3,28.59-4.31,62.19-10.99,87.36-26q-.26-1.95,0,0c3.24-1.76,6.45-3.64,9.6-5.59,0,0,0,0,0,0,13.24-7.91,25.43-17.15,38.64-25.15-.56,2.73-3.69,3.77-5.35,4.85-11.96,8.9-21.76,20.37-33.04,30.17-7.06,14.87,6.5,42.93,18.7,52.63,8.28,7.08,24.91,16.43,35.36,13.12,9.31-7.57,17.56-16.72,21.09-29.01-61.41,29.63-73.11-79.61-8.59-66.72,30.14,10.26,27.48,49.15,14.44,72.39-5.88,11.44-15.52,17.21-25.81,23.76,5.16,1.04,10.03.52,16.15-1.11-.17.04-.35.07-.52.11,47.67-11.57,60.38-82.09,17.86-111.21,11.33,2.37,42.04,10.67,41.41,23.85-.07,28.51-.72,57.21.54,85.6h5.17q-1.76-1.05,0,0h12.03q1.73-1,0,0h13.48c.05-1.86-.13-53.71.12-53.95,0-17.5,6.46-37.6,26.81-35.7,19.33-.64,18.65,17.11,19.45,32.27.01.58,0,1.1,0,1.59,0,0,0,55.8,0,55.8h13.53q-3.57-2.09,0,0c7.09-.67,13.94,3,17.15-6.41h0c2.03-19.03.44-38.74.71-57.96Z"/>
</svg>