<svg width="110" height="110" viewBox="0 0 110 110" fill="none" xmlns="http://www.w3.org/2000/svg">
<mask id="mask0_1459_81169" style="mask-type:luminance" maskUnits="userSpaceOnUse" x="-15" y="-15" width="140" height="140">
<path d="M-14.334 -14.334H124.333V124.333H-14.334V-14.334Z" fill="white"/>
</mask>
<g mask="url(#mask0_1459_81169)">
<mask id="mask1_1459_81169" style="mask-type:luminance" maskUnits="userSpaceOnUse" x="-15" y="-15" width="140" height="140">
<path d="M-14.3354 -14.3359H124.331V124.331H-14.3354V-14.3359Z" fill="white"/>
</mask>
<g mask="url(#mask1_1459_81169)">
<path d="M12.7532 39.2754C13.4345 39.2754 13.9878 39.9351 13.9878 40.7476C13.9878 41.5602 13.4345 42.2199 12.7532 42.2199C12.0718 42.2199 11.5186 41.5602 11.5186 40.7476C11.5186 39.9351 12.0718 39.2754 12.7532 39.2754Z" fill="#FFD03B"/>
<path d="M71.3514 31.1279L68.2864 30.8642L60.9022 30.2715L63.9672 30.5352L71.3514 31.1279Z" fill="#FFB43B"/>
<path d="M66.7127 68.2776L65.4858 70.3216L63.0435 68.9442L64.2705 66.9002L66.7127 68.2776Z" fill="#70E182"/>
<path d="M10.0019 92.1694L8.19286 93.3586L4.15605 92.2955L5.96505 91.1064L10.0019 92.1694Z" fill="#FFC23B"/>
<path d="M30.4282 33.1973L28.1133 33.6176L22.6843 32.8414L24.9992 32.4211L30.4282 33.1973Z" fill="#FFAE3B"/>
<path d="M91.3315 55.8976L89.5714 57.518L85.7546 56.2379L87.5147 54.6175L91.3315 55.8976Z" fill="#FFCA3B"/>
<path d="M37.7919 56.4945L36.1943 57.9711L32.731 56.806L34.3287 55.3294L37.7919 56.4945Z" fill="#FF533B"/>
<path d="M91.1558 27.7878L93.6581 26.5765L93.4295 29.3876L91.1558 27.7878Z" fill="#FF6F3B"/>
<path d="M22.4448 51.9901L25.1557 50.8873L24.9419 53.5165L22.4448 51.9901Z" fill="#FF613B"/>
<path d="M80.0246 81.3859L81.8436 80.4616L81.6703 82.5921L80.0246 81.3859Z" fill="#FF6F3B"/>
<path d="M29.3173 13.5678L28.124 14.6083L25.5222 13.7712L26.7156 12.7307L29.3173 13.5678Z" fill="#70E182"/>
<path d="M86.8151 27.4308L85.7281 28.5647L83.4025 27.7034L84.4895 26.5695L86.8151 27.4308Z" fill="#FFCA3B"/>
<path d="M16.7522 60.5523L19.7239 58.8628L19.4118 62.6997L16.7522 60.5523Z" fill="#FBC752"/>
<path d="M85.0529 99.997L87.8733 98.4362L87.584 101.993L85.0529 99.997Z" fill="#FBCD52"/>
<path d="M57.6266 27.0777L60.3081 25.5594L60.0274 29.0094L57.6266 27.0777Z" fill="#FBCD52"/>
<path d="M30.3488 87.7343L33.3503 86.5628L33.1215 89.3755L30.3488 87.7343Z" fill="#FBB552"/>
<path d="M73.9191 39.8078L76.8635 38.7214L76.6493 41.3558L73.9191 39.8078Z" fill="#FBB552"/>
<path d="M81.5522 18.0863C81.4642 16.3533 81.5232 14.5585 81.7112 12.8457" stroke="#FBD452" stroke-width="6.5562"/>
<path d="M62.8058 85.413C64.2095 85.5816 65.6194 85.7537 66.8804 86.0977" stroke="#70E182" stroke-width="4.14096"/>
<path d="M38.5039 25.5927C36.0275 25.722 33.6937 25.4619 31.7236 24.0879" stroke="#FBA352" stroke-width="3.92033"/>
<path d="M73.6222 60.0399C74.5979 58.8972 75.6395 57.9598 77.0293 57.6465" stroke="#FFAE3B" stroke-width="0.509671"/>
<path d="M13.8692 85.0768C14.744 86.0797 15.0881 87.8878 15.0581 89.8926" stroke="#FBB552" stroke-width="3.72058"/>
<path d="M13.0508 13.8047C10.7041 14.0158 8.88268 15.4027 7.15381 16.707" stroke="#FFAE3B" stroke-width="2.19252"/>
</g>
<mask id="mask2_1459_81169" style="mask-type:luminance" maskUnits="userSpaceOnUse" x="-15" y="-15" width="140" height="140">
<path d="M124.333 124.342H-14.3332V-14.3249H124.333V124.342Z" fill="white"/>
</mask>
<g mask="url(#mask2_1459_81169)">
<path d="M83.1442 64.834C82.4007 64.834 81.7971 64.2959 81.7971 63.6331C81.7971 62.9704 82.4007 62.4323 83.1442 62.4323C83.8876 62.4323 84.4912 62.9704 84.4912 63.6331C84.4912 64.2959 83.8876 64.834 83.1442 64.834Z" fill="#FFAB23"/>
<g opacity="0.207346">
<path d="M51.5117 56.8528L50.1057 56.5759L50.3783 54.9051L51.7843 55.1819L51.5117 56.8528Z" fill="#70E182"/>
</g>
<path d="M92.607 31.6475L91.4017 31.3695L91.6046 29.8474L92.8099 30.1255L92.607 31.6475Z" fill="#FF9C23"/>
<path d="M25.6413 59.446L23.7349 58.665L23.7983 55.5066L25.7047 56.2877L25.6413 59.446Z" fill="#FF9C23"/>
<path d="M70.6264 62.5251L69.1426 61.8379L69.132 59.2049L70.6158 59.8922L70.6264 62.5251Z" fill="#70E182"/>
<g opacity="0.96806">
<path d="M63.2978 69.549L65.4863 71.9209L62.627 72.7058L63.2978 69.549Z" fill="#70E182"/>
</g>
<path d="M30.1645 38.9802L32.5708 41.4435L29.3531 42.3268L30.1645 38.9802Z" fill="#FFB423"/>
<path d="M14.0983 24.4674C14.1288 23.5935 14.6906 22.9028 15.3521 22.9259C16.0136 22.949 16.5259 23.6773 16.4954 24.5511C16.4649 25.425 15.9031 26.1157 15.2416 26.0926C14.5801 26.0695 14.0677 25.3413 14.0983 24.4674Z" fill="#FFA323"/>
<g opacity="0.96806">
<path d="M58.2803 66.4491L56.6336 65.2428L56.2869 61.3446L57.9336 62.5509L58.2803 66.4491Z" fill="#70E182"/>
</g>
<path d="M27.7535 76.7624L25.924 75.763L25.7961 72.1821L27.6256 73.1815L27.7535 76.7624Z" fill="#70E182"/>
<path d="M51.7549 19.8897L49.9549 19.1704L50.0284 16.2282L51.8285 16.9475L51.7549 19.8897Z" fill="#FBC252"/>
<path d="M45.0958 14.296L47.2406 16.6608L44.4591 17.4244L45.0958 14.296Z" fill="#FBB052"/>
<path d="M45.1271 80.9575L47.1362 82.5412L44.2081 83.345L45.1271 80.9575Z" fill="#70E182"/>
<path d="M59.4721 27.3082L62.2344 28.6964L57.8058 29.9121L59.4721 27.3082Z" fill="#FBAA52"/>
<path d="M47.3618 67.628L49.717 69.5893L46.3381 70.5168L47.3618 67.628Z" fill="#70E182"/>
<g opacity="0.342023">
<path d="M54.7256 54.4633C54.7256 54.4633 50.6365 54.9589 46.8167 58.3809" stroke="#FFB900" stroke-width="3.89513"/>
</g>
<path d="M48.7473 39.9038C50.9979 41.1342 55.6517 39.5423 55.6674 32.5243" stroke="#70E182" stroke-width="5.54807"/>
<path d="M40.7461 54.0548C40.6963 54.4057 40.7772 54.7676 41.0182 55.1024C42.5335 57.2075 48.5239 49.6399 47.9292 45.8892" stroke="#70E182" stroke-width="2.89908"/>
<g opacity="0.489506">
<path d="M87.2765 82.5227C87.2765 82.5227 92.6974 77.0346 93.3616 81.3769C93.3814 81.5065 93.4023 81.6339 93.4242 81.7593" stroke="#70E182" stroke-width="2.19629"/>
</g>
</g>
</g>
<mask id="mask3_1459_81169" style="mask-type:luminance" maskUnits="userSpaceOnUse" x="24" y="24" width="62" height="62">
<path d="M24.9565 24.9648H85.0454V85.0537H24.9565V24.9648Z" fill="white"/>
</mask>
<g mask="url(#mask3_1459_81169)">
<g opacity="0.396681">
<path d="M54.881 27.9629C69.501 27.9629 81.3713 39.8332 81.3713 54.4532C81.3713 69.0733 69.501 80.9436 54.881 80.9436C40.261 80.9436 28.3906 69.0733 28.3906 54.4532C28.3906 39.8332 40.261 27.9629 54.881 27.9629Z" fill="#3AA75F"/>
</g>
<g opacity="0.6961">
<path d="M54.8794 33.709C66.4056 33.709 75.7641 43.0674 75.7641 54.5937C75.7641 66.12 66.4056 75.4785 54.8794 75.4785C43.3531 75.4785 33.9946 66.12 33.9946 54.5937C33.9946 43.0674 43.3531 33.709 54.8794 33.709Z" fill="#3AA75F"/>
</g>
<path d="M54.8806 33.6797C66.4216 33.6797 75.792 43.0501 75.792 54.5911C75.792 66.1321 66.4216 75.5025 54.8806 75.5025C43.3396 75.5025 33.9692 66.1321 33.9692 54.5911C33.9692 43.0501 43.3396 33.6797 54.8806 33.6797Z" fill="#3AA75F"/>
<path d="M45.3188 55.5294L51.3629 61.4562L63.5685 48.8398" stroke="white" stroke-width="3.52083" stroke-linecap="round" stroke-linejoin="round"/>
</g>
</svg>
